<mxfile host="65bd71144e">
    <diagram id="utQAnZ7Tl9ALv5vLHOke" name="第 1 页">
        <mxGraphModel dx="2104" dy="959" grid="1" gridSize="10" guides="1" tooltips="1" connect="1" arrows="1" fold="1" page="0" pageScale="1" pageWidth="827" pageHeight="1169" math="0" shadow="0">
            <root>
                <mxCell id="0"/>
                <mxCell id="1" parent="0"/>
                <mxCell id="39" style="edgeStyle=none;html=1;exitX=0.5;exitY=1;exitDx=0;exitDy=0;entryX=0.5;entryY=0;entryDx=0;entryDy=0;fontSize=12;" edge="1" parent="1" source="2" target="5">
                    <mxGeometry relative="1" as="geometry"/>
                </mxCell>
                <mxCell id="2" value="开始" style="whiteSpace=wrap;html=1;fillColor=none;rounded=1;arcSize=43;fontSize=16;flipV=0;" vertex="1" parent="1">
                    <mxGeometry x="-35" y="150" width="120" height="60" as="geometry"/>
                </mxCell>
                <mxCell id="40" style="edgeStyle=none;html=1;exitX=0.5;exitY=1;exitDx=0;exitDy=0;entryX=0.5;entryY=0;entryDx=0;entryDy=0;fontSize=12;" edge="1" parent="1" source="5" target="6">
                    <mxGeometry relative="1" as="geometry"/>
                </mxCell>
                <mxCell id="5" value="进入注册模块" style="rounded=0;whiteSpace=wrap;html=1;fontSize=12;fillColor=none;flipV=0;" vertex="1" parent="1">
                    <mxGeometry x="-40" y="254" width="130" height="60" as="geometry"/>
                </mxCell>
                <mxCell id="41" style="edgeStyle=none;html=1;exitX=0.5;exitY=1;exitDx=0;exitDy=0;entryX=0.5;entryY=0;entryDx=0;entryDy=0;fontSize=12;" edge="1" parent="1" source="6" target="10">
                    <mxGeometry relative="1" as="geometry"/>
                </mxCell>
                <mxCell id="6" value="获取图形验证码" style="rounded=0;whiteSpace=wrap;html=1;fontSize=12;fillColor=none;flipV=0;" vertex="1" parent="1">
                    <mxGeometry x="-40" y="358" width="130" height="60" as="geometry"/>
                </mxCell>
                <mxCell id="42" style="edgeStyle=none;html=1;exitX=0.5;exitY=1;exitDx=0;exitDy=0;entryX=0.5;entryY=0;entryDx=0;entryDy=0;fontSize=12;" edge="1" parent="1" source="10" target="12">
                    <mxGeometry relative="1" as="geometry"/>
                </mxCell>
                <mxCell id="10" value="用户输入用户名密码验证码" style="rounded=0;whiteSpace=wrap;html=1;fontSize=12;fillColor=none;flipV=0;" vertex="1" parent="1">
                    <mxGeometry x="-40" y="463" width="130" height="60" as="geometry"/>
                </mxCell>
                <mxCell id="43" style="edgeStyle=none;html=1;exitX=0.5;exitY=1;exitDx=0;exitDy=0;entryX=0.5;entryY=0;entryDx=0;entryDy=0;fontSize=12;" edge="1" parent="1" source="12" target="14">
                    <mxGeometry relative="1" as="geometry"/>
                </mxCell>
                <mxCell id="49" style="edgeStyle=orthogonalEdgeStyle;rounded=0;html=1;exitX=0;exitY=0.5;exitDx=0;exitDy=0;entryX=0;entryY=0.5;entryDx=0;entryDy=0;fontSize=12;" edge="1" parent="1" source="12" target="6">
                    <mxGeometry relative="1" as="geometry">
                        <Array as="points">
                            <mxPoint x="-110" y="597"/>
                            <mxPoint x="-110" y="388"/>
                        </Array>
                    </mxGeometry>
                </mxCell>
                <mxCell id="12" value="用户已存在" style="rhombus;whiteSpace=wrap;html=1;rounded=0;fontSize=12;fillColor=none;flipV=0;" vertex="1" parent="1">
                    <mxGeometry x="-40" y="557" width="130" height="80" as="geometry"/>
                </mxCell>
                <mxCell id="50" style="edgeStyle=orthogonalEdgeStyle;rounded=0;html=1;entryX=0.5;entryY=0;entryDx=0;entryDy=0;fontSize=12;exitX=0.5;exitY=1;exitDx=0;exitDy=0;" edge="1" parent="1" source="14" target="16">
                    <mxGeometry relative="1" as="geometry">
                        <Array as="points">
                            <mxPoint x="25" y="800"/>
                            <mxPoint x="138" y="800"/>
                            <mxPoint x="138" y="200"/>
                            <mxPoint x="250" y="200"/>
                        </Array>
                    </mxGeometry>
                </mxCell>
                <mxCell id="14" value="注册成功" style="whiteSpace=wrap;html=1;rounded=0;fontSize=12;fillColor=none;flipV=0;" vertex="1" parent="1">
                    <mxGeometry x="-35" y="671" width="120" height="60" as="geometry"/>
                </mxCell>
                <mxCell id="53" style="edgeStyle=orthogonalEdgeStyle;rounded=0;html=1;exitX=0.5;exitY=1;exitDx=0;exitDy=0;entryX=0.5;entryY=0;entryDx=0;entryDy=0;fontSize=12;" edge="1" parent="1" source="16" target="18">
                    <mxGeometry relative="1" as="geometry"/>
                </mxCell>
                <mxCell id="16" value="进入登录" style="whiteSpace=wrap;html=1;rounded=0;fontSize=12;fillColor=none;flipV=0;" vertex="1" parent="1">
                    <mxGeometry x="190" y="254" width="120" height="60" as="geometry"/>
                </mxCell>
                <mxCell id="54" style="edgeStyle=orthogonalEdgeStyle;rounded=0;html=1;exitX=0.5;exitY=1;exitDx=0;exitDy=0;entryX=0.5;entryY=0;entryDx=0;entryDy=0;fontSize=12;" edge="1" parent="1" source="18" target="24">
                    <mxGeometry relative="1" as="geometry"/>
                </mxCell>
                <mxCell id="18" value="输入用户名密码" style="whiteSpace=wrap;html=1;rounded=0;fontSize=12;fillColor=none;flipV=0;" vertex="1" parent="1">
                    <mxGeometry x="190" y="358" width="120" height="60" as="geometry"/>
                </mxCell>
                <mxCell id="55" style="edgeStyle=orthogonalEdgeStyle;rounded=0;html=1;exitX=0.5;exitY=1;exitDx=0;exitDy=0;entryX=0.5;entryY=0;entryDx=0;entryDy=0;fontSize=12;" edge="1" parent="1" source="24" target="26">
                    <mxGeometry relative="1" as="geometry"/>
                </mxCell>
                <mxCell id="60" style="edgeStyle=orthogonalEdgeStyle;rounded=0;html=1;entryX=1;entryY=0.5;entryDx=0;entryDy=0;fontSize=12;" edge="1" parent="1" source="24" target="18">
                    <mxGeometry relative="1" as="geometry">
                        <Array as="points">
                            <mxPoint x="360" y="492"/>
                            <mxPoint x="360" y="388"/>
                        </Array>
                    </mxGeometry>
                </mxCell>
                <mxCell id="24" value="用户名密码错误" style="rhombus;whiteSpace=wrap;html=1;rounded=0;fontSize=12;fillColor=none;flipV=0;" vertex="1" parent="1">
                    <mxGeometry x="190" y="452" width="120" height="80" as="geometry"/>
                </mxCell>
                <mxCell id="56" style="edgeStyle=orthogonalEdgeStyle;rounded=0;html=1;exitX=0.5;exitY=1;exitDx=0;exitDy=0;entryX=0.5;entryY=0;entryDx=0;entryDy=0;fontSize=12;" edge="1" parent="1" source="26" target="28">
                    <mxGeometry relative="1" as="geometry"/>
                </mxCell>
                <mxCell id="26" value="进入系统" style="whiteSpace=wrap;html=1;rounded=0;fontSize=12;fillColor=none;flipV=0;" vertex="1" parent="1">
                    <mxGeometry x="190" y="567" width="120" height="60" as="geometry"/>
                </mxCell>
                <mxCell id="57" style="edgeStyle=orthogonalEdgeStyle;rounded=0;html=1;exitX=0.5;exitY=1;exitDx=0;exitDy=0;entryX=0.5;entryY=0;entryDx=0;entryDy=0;fontSize=12;" edge="1" parent="1" source="28" target="32">
                    <mxGeometry relative="1" as="geometry"/>
                </mxCell>
                <mxCell id="28" value="其他操作" style="whiteSpace=wrap;html=1;rounded=0;fontSize=12;fillColor=none;flipV=0;" vertex="1" parent="1">
                    <mxGeometry x="190" y="671" width="120" height="60" as="geometry"/>
                </mxCell>
                <mxCell id="58" style="edgeStyle=orthogonalEdgeStyle;rounded=0;html=1;exitX=0.5;exitY=1;exitDx=0;exitDy=0;entryX=0.5;entryY=0;entryDx=0;entryDy=0;fontSize=12;" edge="1" parent="1" source="32" target="34">
                    <mxGeometry relative="1" as="geometry"/>
                </mxCell>
                <mxCell id="62" style="edgeStyle=orthogonalEdgeStyle;rounded=0;html=1;exitX=1;exitY=0.5;exitDx=0;exitDy=0;entryX=1;entryY=0.5;entryDx=0;entryDy=0;fontSize=12;" edge="1" parent="1" source="32" target="28">
                    <mxGeometry relative="1" as="geometry">
                        <Array as="points">
                            <mxPoint x="360" y="805"/>
                            <mxPoint x="360" y="701"/>
                        </Array>
                    </mxGeometry>
                </mxCell>
                <mxCell id="32" value="退出" style="rhombus;whiteSpace=wrap;html=1;rounded=0;fontSize=12;fillColor=none;flipV=0;" vertex="1" parent="1">
                    <mxGeometry x="190" y="765" width="120" height="80" as="geometry"/>
                </mxCell>
                <mxCell id="34" value="结束" style="whiteSpace=wrap;html=1;fillColor=none;rounded=1;arcSize=43;fontSize=16;flipV=0;" vertex="1" parent="1">
                    <mxGeometry x="190" y="879" width="120" height="60" as="geometry"/>
                </mxCell>
                <mxCell id="44" value="否" style="text;html=1;align=center;verticalAlign=middle;resizable=0;points=[];autosize=1;strokeColor=none;fillColor=none;rounded=0;fontSize=12;" vertex="1" parent="1">
                    <mxGeometry x="15" y="640" width="30" height="20" as="geometry"/>
                </mxCell>
                <mxCell id="48" value="是" style="text;html=1;align=center;verticalAlign=middle;resizable=0;points=[];autosize=1;strokeColor=none;fillColor=none;rounded=0;fontSize=12;" vertex="1" parent="1">
                    <mxGeometry x="-85" y="580" width="30" height="20" as="geometry"/>
                </mxCell>
                <mxCell id="59" value="否" style="text;html=1;align=center;verticalAlign=middle;resizable=0;points=[];autosize=1;strokeColor=none;fillColor=none;rounded=0;fontSize=12;" vertex="1" parent="1">
                    <mxGeometry x="245" y="530" width="30" height="20" as="geometry"/>
                </mxCell>
                <mxCell id="61" value="是" style="text;html=1;align=center;verticalAlign=middle;resizable=0;points=[];autosize=1;strokeColor=none;fillColor=none;rounded=0;fontSize=12;" vertex="1" parent="1">
                    <mxGeometry x="320" y="470" width="30" height="20" as="geometry"/>
                </mxCell>
                <mxCell id="63" value="否" style="text;html=1;align=center;verticalAlign=middle;resizable=0;points=[];autosize=1;strokeColor=none;fillColor=none;rounded=0;fontSize=12;" vertex="1" parent="1">
                    <mxGeometry x="310" y="790" width="30" height="20" as="geometry"/>
                </mxCell>
                <mxCell id="64" value="是" style="text;html=1;align=center;verticalAlign=middle;resizable=0;points=[];autosize=1;strokeColor=none;fillColor=none;rounded=0;fontSize=12;" vertex="1" parent="1">
                    <mxGeometry x="245" y="850" width="30" height="20" as="geometry"/>
                </mxCell>
            </root>
        </mxGraphModel>
    </diagram>
</mxfile>